{
	"asset":{
		"generator":"Khronos glTF Blender I/O v3.6.27",
		"version":"2.0"
	},
	"scene":0,
	"scenes":[
		{
			"name":"Scene",
			"nodes":[
				0
			]
		}
	],
	"nodes":[
		{
			"mesh":0,
			"name":"Fusion_2",
			"rotation":[
				0.6611063480377197,
				-0.7420496344566345,
				-0.059792835265398026,
				0.09341114014387131
			],
			"scale":[
				0.04853762686252594,
				0.04853761941194534,
				0.04853762686252594
			],
			"translation":[
				5.281023979187012,
				9.357514381408691,
				-0.3330278992652893
			]
		}
	],
	"materials":[
		{
			"doubleSided":true,
			"name":"Metallic Simple",
			"pbrMetallicRoughness":{}
		}
	],
	"meshes":[
		{
			"name":"Fusion_2",
			"primitives":[
				{
					"attributes":{
						"POSITION":0,
						"NORMAL":1,
						"TEXCOORD_0":2
					},
					"indices":3,
					"material":0
				}
			]
		}
	],
	"accessors":[
		{
			"bufferView":0,
			"componentType":5126,
			"count":1217390,
			"max":[
				205.60360717773438,
				146.3343505859375,
				168.8082275390625
			],
			"min":[
				-163.21554565429688,
				-156.58448791503906,
				-112.00580596923828
			],
			"type":"VEC3"
		},
		{
			"bufferView":1,
			"componentType":5126,
			"count":1217390,
			"type":"VEC3"
		},
		{
			"bufferView":2,
			"componentType":5126,
			"count":1217390,
			"type":"VEC2"
		},
		{
			"bufferView":3,
			"componentType":5125,
			"count":5564472,
			"type":"SCALAR"
		}
	],
	"bufferViews":[
		{
			"buffer":0,
			"byteLength":14608680,
			"byteOffset":0,
			"target":34962
		},
		{
			"buffer":0,
			"byteLength":14608680,
			"byteOffset":14608680,
			"target":34962
		},
		{
			"buffer":0,
			"byteLength":9739120,
			"byteOffset":29217360,
			"target":34962
		},
		{
			"buffer":0,
			"byteLength":22257888,
			"byteOffset":38956480,
			"target":34963
		}
	],
	"buffers":[
		{
			"byteLength":61214368,
			"uri":"melisa_galva.bin"
		}
	]
}
